<svg width="488" height="209" viewBox="0 0 488 209" fill="none" xmlns="http://www.w3.org/2000/svg">
<path d="M101.9 98.2904L91.3 107.89C89.7 109.29 88.9 111.19 88.9 113.29V123.69C88.9 125.29 88.2 126.69 87.1 127.79L48.7 162.89C46.4 164.99 42.6 164.99 40.3 162.89L19.3 143.79C18.1 142.69 17.4 141.19 17.4 139.69V68.0904C17.4 66.4904 18.1 65.0904 19.3 63.9904L40.1 44.9904C42.5 42.8904 46.2 42.8904 48.5 44.9904L64.3 59.3904C66.7 61.4904 70.4 61.4904 72.8 59.3904C75.2 57.0904 75.2 53.3904 72.8 51.1904L52.7 32.8904C50.4 30.7904 47.4 29.6904 44.3 29.6904C41.2 29.6904 38.1 30.7904 35.9 32.8904L3.60001 62.3904C1.30001 64.4904 0 67.4904 0 70.5904V137.39C0 140.49 1.29998 143.49 3.69998 145.69L35.9 175.19C38.2 177.29 41.2 178.49 44.4 178.49C47.5 178.49 50.6 177.39 52.9 175.19L104.1 128.49C105.3 127.39 106.5 125.39 106.5 123.29V100.29C106.4 97.8904 103.6 96.7904 101.9 98.2904Z" fill="white"/>
<path d="M88.8999 38.4905V15.7905C88.8999 13.7905 89.7999 11.7905 91.2999 10.3905L101.8 0.690466C103.5 -0.809534 106.3 0.290484 106.3 2.49048V25.2905C106.3 27.3905 105.4 29.2905 103.9 30.6905C101.2 33.0905 96.6999 37.1905 93.3999 40.1905C91.6999 41.8905 88.8999 40.6905 88.8999 38.4905Z" fill="white"/>
<path d="M70.5 109.39L81 99.7902C82.6 98.3902 83.4 96.4902 83.4 94.3902V83.9902C83.4 82.3902 84.1 80.9902 85.2 79.8902L123.6 44.6902C125.9 42.5902 129.7 42.5902 132 44.6902L153 63.7902C154.2 64.8902 154.9 66.3902 154.9 67.8902V139.59C154.9 141.19 154.2 142.59 153 143.69L132.3 162.89C129.9 164.99 126.2 164.99 123.9 162.89L108.1 148.49C105.7 146.39 102 146.39 99.6 148.49C97.2 150.79 97.2 154.49 99.6 156.69L119.7 174.99C122 177.09 125 178.19 128.1 178.19C131.2 178.19 134.3 177.09 136.5 174.99L168.8 145.49C171.1 143.39 172.4 140.39 172.4 137.29V70.3902C172.4 67.2902 171.1 64.3902 168.8 62.1902L136.5 32.6902C134.2 30.5902 131.2 29.4902 128.1 29.4902H128C124.9 29.4902 121.8 30.5902 119.6 32.6902L68.1 79.6902C66.9 80.7902 66 83.2902 66 84.7902V107.69C66 109.89 68.8 110.99 70.5 109.39Z" fill="white"/>
<path d="M288.483 68.3543V139H272.483V118.846L273.522 93.7038L257.211 120.404H244.952L228.329 93.2882L229.68 118.846V139H213.681V68.3543H229.057L251.082 103.885L273.107 68.3543H288.483ZM361.117 80.8212L336.287 146.688C333.932 153.268 330.676 158.013 326.521 160.922C322.434 163.831 317.448 165.285 311.56 165.285C309.621 165.285 307.543 165.112 305.327 164.766C303.18 164.489 301.31 164.038 299.717 163.415L300.859 151.675C304.323 152.714 307.301 153.234 309.794 153.234C313.119 153.234 315.958 152.437 318.313 150.844C320.668 149.251 322.746 146.619 324.547 142.948L300.548 80.8212H316.755L331.196 123.625L345.117 80.8212H361.117ZM421.616 80.094H401.149V139H384.734V80.094H364.475V68.3543H421.616V80.094ZM452.75 140.351C448.04 140.351 443.573 139.901 439.348 139C435.123 138.031 431.452 136.715 428.335 135.053L431.764 123.728C435.434 125.321 438.897 126.499 442.153 127.261C445.477 128.023 448.94 128.404 452.542 128.404C456.49 128.404 459.814 127.676 462.515 126.222C465.217 124.698 466.567 122.551 466.567 119.781C466.567 117.98 465.909 116.421 464.593 115.105C463.347 113.789 461.754 112.716 459.814 111.885C457.944 110.984 455.312 109.911 451.919 108.664C447.417 107.002 443.746 105.444 440.906 103.989C438.066 102.535 435.642 100.561 433.634 98.0672C431.625 95.5046 430.621 92.3186 430.621 88.5092C430.621 81.7216 433.149 76.4578 438.205 72.7177C443.33 68.9776 450.187 67.1076 458.775 67.1076C462.585 67.1076 466.29 67.5578 469.892 68.4582C473.563 69.3585 476.853 70.6399 479.761 72.3021L476.229 83.5224C470.134 80.5442 464.489 79.0551 459.295 79.0551C455.485 79.0551 452.403 79.7823 450.049 81.2368C447.763 82.6913 446.62 84.7691 446.62 87.4703C446.62 89.7559 447.728 91.5913 449.945 92.9766C452.161 94.3618 455.693 95.9548 460.542 97.7556C465.182 99.4871 468.957 101.115 471.866 102.638C474.844 104.093 477.372 106.136 479.45 108.768C481.597 111.4 482.67 114.725 482.67 118.742C482.67 125.529 480.073 130.828 474.879 134.637C469.684 138.446 462.308 140.351 452.75 140.351Z" fill="white"/>
</svg>
